<svg width="17" height="19" viewBox="0 0 17 19" fill="none" xmlns="http://www.w3.org/2000/svg">
<path fill-rule="evenodd" clip-rule="evenodd" d="M2.36274 3.2918C4.1067 3.11567 5.85087 3.02759 7.59516 3.02759C10.523 3.02759 13.459 3.17661 16.3769 3.46577C16.7355 3.50131 16.9974 3.82083 16.9619 4.17944C16.9264 4.53805 16.6068 4.79995 16.2482 4.76441C13.3719 4.47937 10.4789 4.33259 7.59516 4.33259C5.89457 4.33259 4.19385 4.41848 2.49293 4.59029L2.49102 4.59048L0.716214 4.76448C0.357567 4.79964 0.0383221 4.5374 0.00316067 4.17876C-0.0320008 3.82011 0.230236 3.50086 0.588883 3.4657L2.36274 3.2918Z" fill="#53C330"/>
<path fill-rule="evenodd" clip-rule="evenodd" d="M6.27254 2.20507L6.08119 3.34447C6.02151 3.69986 5.68502 3.93958 5.32963 3.8799C4.97424 3.82021 4.73453 3.48373 4.79421 3.12834L4.98561 1.98864C4.98895 1.96879 4.9924 1.948 4.99588 1.92694C5.05579 1.56513 5.14367 1.03432 5.4975 0.633093C5.90993 0.165402 6.53921 0 7.343 0H9.62241C10.436 0 11.0646 0.178698 11.4746 0.65115C11.8289 1.05945 11.9146 1.59215 11.9718 1.94785C11.9746 1.96516 11.9773 1.98205 11.98 1.99849L12.1711 3.12753C12.2312 3.48285 11.9919 3.81963 11.6366 3.87976C11.2813 3.93989 10.9445 3.7006 10.8844 3.34528L10.6923 2.21041C10.6195 1.76408 10.5735 1.60387 10.489 1.50646C10.4422 1.45256 10.2791 1.305 9.62241 1.305H7.343C6.6765 1.305 6.51842 1.44845 6.47628 1.49624C6.39614 1.58712 6.35091 1.7398 6.27254 2.20507Z" fill="#53C330"/>
<path fill-rule="evenodd" clip-rule="evenodd" d="M14.4844 6.21317C14.844 6.23638 15.1167 6.54673 15.0935 6.90635L14.5278 15.6708L14.5266 15.6874C14.5037 16.0147 14.4785 16.3747 14.411 16.7096C14.3411 17.0568 14.2178 17.4234 13.968 17.7486C13.445 18.4295 12.5549 18.705 11.2755 18.705H5.69012C4.41073 18.705 3.52066 18.4295 2.99764 17.7486C2.74786 17.4234 2.62459 17.0568 2.55464 16.7096C2.48719 16.3747 2.46199 16.0147 2.43907 15.6874L2.43766 15.6673L1.87217 6.90635C1.84895 6.54673 2.12166 6.23638 2.48128 6.21317C2.8409 6.18996 3.15125 6.46267 3.17446 6.82229L3.73972 15.5796C3.73976 15.5802 3.7398 15.5808 3.73985 15.5814C3.7644 15.9318 3.78518 16.2097 3.83396 16.4519C3.88147 16.6878 3.94742 16.8428 4.03259 16.9536C4.17947 17.1449 4.54221 17.4 5.69012 17.4H11.2755C12.4234 17.4 12.7862 17.1449 12.9331 16.9536C13.0182 16.8428 13.0842 16.6878 13.1317 16.4519C13.1805 16.2097 13.2013 15.9318 13.2258 15.5814C13.2258 15.5808 13.2259 15.5802 13.2259 15.5796L13.7912 6.82229C13.8144 6.46267 14.1248 6.18996 14.4844 6.21317Z" fill="#53C330"/>
<path fill-rule="evenodd" clip-rule="evenodd" d="M6.37714 13.2676C6.37714 12.9072 6.66927 12.6151 7.02964 12.6151H9.92674C10.2871 12.6151 10.5792 12.9072 10.5792 13.2676C10.5792 13.628 10.2871 13.9201 9.92674 13.9201H7.02964C6.66927 13.9201 6.37714 13.628 6.37714 13.2676Z" fill="#53C330"/>
<path fill-rule="evenodd" clip-rule="evenodd" d="M5.65509 9.78763C5.65509 9.42727 5.94723 9.13513 6.30759 9.13513H10.6576C11.018 9.13513 11.3101 9.42727 11.3101 9.78763C11.3101 10.148 11.018 10.4401 10.6576 10.4401H6.30759C5.94723 10.4401 5.65509 10.148 5.65509 9.78763Z" fill="#53C330"/>
</svg>
